<?xml version="1.0" encoding="UTF-8" standalone="no"?>
<!-- Created with Inkscape (http://www.inkscape.org/) -->

<svg
   version="1.1"
   id="svg1"
   width="673.33331"
   height="241.33333"
   viewBox="0 0 673.33331 241.33333"
   xmlns="http://www.w3.org/2000/svg"
   xmlns:svg="http://www.w3.org/2000/svg">
  <defs
     id="defs1" />
  <g
     id="g1">
    <path
       id="path1"
       d="m 351.052,37.367 -5.036,-0.59 -1.461,4.836 -4.182,-2.855 -3.548,3.605 -2.373,-4.461 -4.825,1.551 -0.015,-5.051 -5.001,-0.855 2.346,-4.481 -4.03,-3.07 4.167,-2.883 -2.131,-4.582 5.036,-0.625 0.255,-5.043 4.746,1.778 2.577,-4.352 3.379,3.77 4.312,-2.657 1.229,4.899 5.06,-0.356 -1.202,4.903 4.652,2.023 -3.356,3.793 3.172,3.941 -4.739,1.809 z"
       style="fill:#ff6600;fill-opacity:1;fill-rule:evenodd;stroke:#000000;stroke-width:1.50479;stroke-linecap:butt;stroke-linejoin:miter;stroke-miterlimit:4;stroke-dasharray:none;stroke-opacity:1"
       transform="scale(1.3300213,1.3333333)" />
    <path
       id="path2"
       d="m 344.974,26.324 c 0,3.313 -2.678,6.004 -5.991,6.02 -3.313,0.011 -6.015,-2.653 -6.047,-5.965 -0.027,-3.317 2.628,-6.031 5.941,-6.074 3.313,-0.043 6.038,2.597 6.097,5.91"
       style="fill:none;stroke:#000000;stroke-width:1.50479;stroke-linecap:round;stroke-linejoin:round;stroke-miterlimit:4;stroke-dasharray:none;stroke-opacity:1"
       transform="scale(1.3300213,1.3333333)" />
    <path
       id="path3"
       d="m 344.117,26.324 c 0,3.313 -2.672,6.004 -5.976,6.02 -3.305,0.011 -6,-2.653 -6.032,-5.965 -0.027,-3.317 2.621,-6.031 5.926,-6.074 3.305,-0.043 6.024,2.597 6.082,5.91"
       style="fill:#ffcc00;fill-opacity:1;fill-rule:evenodd;stroke:none"
       transform="scale(1.3333333)" />
    <path
       id="path4"
       d="m 72.242,70.691 c -4.37,3.704 1.237,14.047 11.466,9.219 20.112,-9.437 18.201,-31.906 -1.692,-32.812 -21.788,-1.016 -59.209,25.625 -39.551,43.828 6.97,6.39 17.418,9.656 25.845,14.031 7.08,3.609 -0.564,4.953 -4.041,4.609 -9.994,-0.781 -16.071,2.469 -17.183,12.922 -0.799,7.75 5.607,13.938 13.251,13.485 5.843,-0.328 11.686,-1.688 17.074,-4.047 5.279,-2.36 10.009,-5.844 12.703,-11 5.17,-9.781 0.674,-19.781 -7.753,-25.844 C 74.936,89.801 66.634,87.66 58.771,83.395 50.109,78.676 69.438,72.16 72.242,70.691 Z"
       style="fill:none;stroke:#000000;stroke-width:3.38577;stroke-linecap:round;stroke-linejoin:round;stroke-miterlimit:4.4;stroke-dasharray:none;stroke-opacity:1"
       transform="scale(1.3300213,1.3333333)" />
    <path
       id="path5"
       d="m 145.377,70.801 c 0.109,12.484 0.329,15.062 -0.126,17.531 -4.26,22.359 -24.263,27.531 -19.987,0.344 1.003,-6.406 3.697,-13.828 3.807,-19.328 0.125,-5.063 -2.131,-8.422 -6.172,-9.11 -12.249,-2.125 -20.222,17.766 -17.638,36.75 3.932,29.328 26.848,34.157 43.374,23.485 15.491,-9.891 21.788,-34.719 17.966,-53.032 -2.694,-12.812 -21.224,-12.593 -21.224,3.36 z"
       style="fill:none;stroke:#000000;stroke-width:3.38577;stroke-linecap:round;stroke-linejoin:round;stroke-miterlimit:4.4;stroke-dasharray:none;stroke-opacity:1"
       transform="scale(1.3300213,1.3333333)" />
    <path
       id="path6"
       d="m 216.138,82.035 c -0.673,11.578 0,13.156 -9.993,4.5 -7.08,-6.297 -15.288,-13.484 -22.024,-11.687 -4.495,1.234 -6.86,5.062 -7.189,9.547 -0.345,5.406 1.566,29.671 3.696,33.828 1.347,2.468 3.493,4.047 6.407,3.937 3.932,-0.125 6.297,-3.375 6.516,-7.078 0.345,-5.281 0.564,-10.687 0.564,-15.969 4.95,3.719 8.318,7.985 14.16,10.797 9.32,4.375 18.656,1.906 24.154,-6.969 7.19,-11.796 14.16,-38.203 8.646,-51.453 -1.911,-4.5 -6.735,-6.968 -11.45,-6.406 -5.514,0.563 -8.317,4.484 -9.774,9.313 -2.929,9.453 -3.149,18.093 -3.713,27.64 z"
       style="fill:none;stroke:#000000;stroke-width:3.38577;stroke-linecap:round;stroke-linejoin:round;stroke-miterlimit:4.4;stroke-dasharray:none;stroke-opacity:1"
       transform="scale(1.3300213,1.3333333)" />
    <path
       id="path7"
       d="m 283.642,94.176 c 5.623,-5.61 14.38,-13.703 16.964,-21.235 3.368,-9.781 -3.148,-18.312 -12.468,-20.906 -10.119,-2.797 -27.647,0.563 -31.454,12.36 -4.385,13.046 -6.187,47.312 -4.385,61.015 0.563,4.61 3.931,8.766 8.756,8.766 2.584,0 5.952,-1.797 6.97,-4.375 2.804,-7.203 1.347,-16.188 2.929,-23.719 l 0.439,-0.437 c 4.715,6.171 18.092,16.625 25.391,19.312 6.861,2.594 13.706,-5.609 8.882,-11.906 -6.188,-8.094 -14.38,-12.469 -22.024,-18.875 z m -8.537,-27.078 c 8.427,-4.5 10.667,7.984 -1.128,12.812 z"
       style="fill:none;stroke:#000000;stroke-width:3.38577;stroke-linecap:round;stroke-linejoin:round;stroke-miterlimit:4.4;stroke-dasharray:none;stroke-opacity:1"
       transform="scale(1.3300213,1.3333333)" />
    <path
       id="path8"
       d="m 340.596,77.551 c 0.329,-4.156 0.783,-8.766 -0.908,-12.703 -3.024,-7.297 -14.035,-6.735 -17.293,3.375 -2.585,7.984 -3.822,16.406 -4.496,24.718 -0.674,9.219 -4.95,33.032 8.881,34.5 4.48,0.438 9.211,-1.468 9.884,-5.734 2.021,-13.937 2.35,-27.531 3.932,-44.156 z"
       style="fill:none;stroke:#000000;stroke-width:3.38577;stroke-linecap:round;stroke-linejoin:round;stroke-miterlimit:4.4;stroke-dasharray:none;stroke-opacity:1"
       transform="scale(1.3300213,1.3333333)" />
    <path
       id="path9"
       d="m 387.31,70.691 c -4.371,3.704 1.237,14.047 11.466,9.219 20.112,-9.437 18.201,-31.906 -1.692,-32.812 -21.788,-1.016 -59.21,25.625 -39.551,43.828 6.97,6.39 17.418,9.656 25.845,14.031 7.08,3.609 -0.564,4.953 -4.041,4.609 -9.994,-0.781 -16.071,2.469 -17.184,12.922 -0.798,7.75 5.608,13.938 13.252,13.485 5.843,-0.328 11.685,-1.688 17.074,-4.047 5.279,-2.36 10.009,-5.844 12.703,-11 5.169,-9.781 0.674,-19.781 -7.753,-25.844 -7.425,-5.281 -15.727,-7.422 -23.59,-11.687 -8.662,-4.719 10.667,-11.235 13.471,-12.704 z"
       style="fill:none;stroke:#000000;stroke-width:3.38577;stroke-linecap:round;stroke-linejoin:round;stroke-miterlimit:4.4;stroke-dasharray:none;stroke-opacity:1"
       transform="scale(1.3300213,1.3333333)" />
    <path
       id="path10"
       d="m 442.008,72.035 c 3.039,0.453 6.078,0.688 9.101,0.797 7.753,0.328 17.982,1.453 18.201,-9.547 0.345,-15.969 -29.103,-11.687 -38.423,-8.203 -1.911,0.781 -2.585,1.906 -3.149,3.813 -4.386,14.953 -9.1,30 -7.753,45.843 1.582,18.094 25.626,21.016 39.896,20.219 2.803,-0.109 5.169,-1.797 6.281,-4.266 10.573,-22.921 -15.946,-17.968 -27.412,-20.562 l 0.674,-6.172 c 5.278,0.109 10.682,1.125 15.961,1.125 9.21,-0.125 9.774,-13.719 1.003,-16.297 -4.371,-1.344 -10.104,-1.125 -14.709,-1.344 z"
       style="fill:none;stroke:#000000;stroke-width:3.38577;stroke-linecap:round;stroke-linejoin:round;stroke-miterlimit:4.4;stroke-dasharray:none;stroke-opacity:1"
       transform="scale(1.3300213,1.3333333)" />
  </g>
</svg>
